<svg width="157" height="157" viewBox="0 0 157 157" fill="none" xmlns="http://www.w3.org/2000/svg">
<path d="M125.927 17.9896H31.0729C23.8472 17.9896 17.9896 23.8472 17.9896 31.0729V125.927C17.9896 133.153 23.8472 139.01 31.0729 139.01H125.927C133.153 139.01 139.01 133.153 139.01 125.927V31.0729C139.01 23.8472 133.153 17.9896 125.927 17.9896Z" stroke="#3B58B7" stroke-width="4" stroke-linecap="round" stroke-linejoin="round"/>
<path d="M17.9896 65.2597C17.9896 72.1995 20.7464 78.8551 25.6536 83.7623C30.5608 88.6695 37.2164 91.4263 44.1562 91.4263H112.844C119.784 91.4263 126.439 88.6695 131.346 83.7623C136.254 78.8551 139.01 72.1995 139.01 65.2597" stroke="#3B58B7" stroke-width="4" stroke-linecap="round" stroke-linejoin="round"/>
<path d="M47.5023 109.828C50.7611 109.828 53.4029 107.186 53.4029 103.927C53.4029 100.669 50.7611 98.0269 47.5023 98.0269C44.2435 98.0269 41.6017 100.669 41.6017 103.927C41.6017 107.186 44.2435 109.828 47.5023 109.828Z" stroke="#3B58B7" stroke-width="4" stroke-linecap="round" stroke-linejoin="round"/>
<path d="M109.498 109.828C112.756 109.828 115.398 107.186 115.398 103.927C115.398 100.669 112.756 98.0269 109.498 98.0269C106.239 98.0269 103.597 100.669 103.597 103.927C103.597 107.186 106.239 109.828 109.498 109.828Z" stroke="#3B58B7" stroke-width="4" stroke-linecap="round" stroke-linejoin="round"/>
<path d="M77.9636 132.394C88.235 132.394 96.5615 125.774 96.5615 117.609C96.5615 109.444 88.235 102.825 77.9636 102.825C67.6922 102.825 59.3656 109.444 59.3656 117.609C59.3656 125.774 67.6922 132.394 77.9636 132.394Z" stroke="#3B58B7" stroke-width="4" stroke-linecap="round" stroke-linejoin="round"/>
<path d="M69.2893 120.249C71.0362 120.249 72.4522 118.833 72.4522 117.086C72.4522 115.339 71.0362 113.923 69.2893 113.923C67.5425 113.923 66.1264 115.339 66.1264 117.086C66.1264 118.833 67.5425 120.249 69.2893 120.249Z" stroke="#3B58B7" stroke-width="4" stroke-linecap="round" stroke-linejoin="round"/>
<path d="M87.7924 120.249C89.5393 120.249 90.9553 118.833 90.9553 117.086C90.9553 115.339 89.5393 113.923 87.7924 113.923C86.0456 113.923 84.6295 115.339 84.6295 117.086C84.6295 118.833 86.0456 120.249 87.7924 120.249Z" stroke="#3B58B7" stroke-width="4" stroke-linecap="round" stroke-linejoin="round"/>
<path d="M48.6798 71.6738H109.508M98.2591 71.6738C101.185 68.0548 103.027 63.6814 103.572 59.0594C104.116 54.4374 103.341 49.7557 101.336 45.5558C99.3309 41.3559 96.1778 37.8095 92.2413 35.3268C88.3049 32.8441 83.746 31.5265 79.092 31.5265C74.438 31.5265 69.8792 32.8441 65.9427 35.3268C62.0063 37.8095 58.8531 41.3559 56.848 45.5558C54.8429 49.7557 54.0678 54.4374 54.6123 59.0594C55.1568 63.6814 56.9987 68.0548 59.9249 71.6738H98.2591Z" stroke="#3B58B7" stroke-width="4" stroke-linecap="round" stroke-linejoin="round"/>
<path d="M83.8086 37.2548H79.841C77.3389 42.9035 72.8186 47.3355 67.2745 49.4975V51.0086H73.875V71.677H83.8086V37.2548Z" stroke="#3B58B7" stroke-width="4" stroke-linecap="round" stroke-linejoin="round"/>
</svg>
